<?xml version="1.0" encoding="utf-8"?>
<!-- Generator: Adobe Illustrator 26.0.0, SVG Export Plug-In . SVG Version: 6.00 Build 0)  -->
<svg version="1.1" id="Layer_1" xmlns="http://www.w3.org/2000/svg" xmlns:xlink="http://www.w3.org/1999/xlink" x="0px" y="0px"
	 viewBox="0 0 800 800" style="enable-background:new 0 0 800 800;" xml:space="preserve">
<style type="text/css">
	.st0{fill:url(#SVGID_1_);}
	.st1{fill:url(#SVGID_00000178884113821988575580000003790960430262233256_);}
	.st2{fill:#FFFFFF;}
	.st3{fill:url(#SVGID_00000169537442098533429370000001824177226745235868_);}
	.st4{fill:url(#SVGID_00000029026924917817699150000003141503638530656165_);}
	.st5{fill:url(#SVGID_00000000207289459938901900000002781817816052578962_);}
	.st6{fill:url(#SVGID_00000080916658253252640490000012966498591292908718_);}
</style>
<linearGradient id="SVGID_1_" gradientUnits="userSpaceOnUse" x1="327.5448" y1="280.7425" x2="514.4527" y2="280.7425">
	<stop  offset="0" style="stop-color:#FFFFFF"/>
	<stop  offset="1" style="stop-color:#000000"/>
</linearGradient>
<path class="st0" d="M380,292.43l52.46,53.52L380,399.48l-52.45-53.53L380,292.43z M449.08,260.66l-41.93,0l0,42.78l41.93,0V260.66z
	 M413.39,219.91l0,30.06l29.46,0l0-30.06L413.39,219.91z M459.24,184.3h-17.21v17.56l17.21,0V184.3z M490.03,193.09h11.82v-12.06
	h-11.82V193.09z M472.31,162v8.75h8.57V162H472.31z M495.94,244.38h18.51V225.5h-18.51V244.38z M491.06,260.66h-34.99v35.71l34.99,0
	V260.66z M460.8,241.02l25.53,0v-26.05l-25.53,0V241.02z"/>
<linearGradient id="SVGID_00000085210218588784529000000003263619347404150665_" gradientUnits="userSpaceOnUse" x1="231" y1="345.9591" x2="529" y2="345.9591">
	<stop  offset="0" style="stop-color:#FF0164"/>
	<stop  offset="1" style="stop-color:#203554"/>
	<stop  offset="1" style="stop-color:#504848"/>
	<stop  offset="1" style="stop-color:#494949"/>
</linearGradient>
<polygon style="fill:url(#SVGID_00000085210218588784529000000003263619347404150665_);" points="488.94,305.08 456.07,305.08 
	456.07,317.32 484.13,345.96 380,452.21 275.87,345.96 380,239.7 394.89,254.9 394.89,254.73 404.69,254.73 404.69,219.12 
	380,193.92 231,345.96 380,498 529,345.96 "/>
<g>
	
		<rect x="331.02" y="339.84" transform="matrix(0.7071 -0.7071 0.7071 0.7071 -147.0542 339.5912)" class="st2" width="10.76" height="14.92"/>
</g>
<g>
	
		<rect x="338.7" y="322.48" transform="matrix(0.7071 -0.7071 0.7071 0.7071 -129.7256 346.7499)" class="st2" width="30" height="14.97"/>
</g>
<g>
	
		<rect x="357.19" y="333.45" transform="matrix(0.7071 -0.7071 0.7071 0.7071 -137.3831 365.2367)" class="st2" width="30" height="30"/>
</g>
<g>
	
		<rect x="349.41" y="350.81" transform="matrix(0.7071 -0.7071 0.7071 0.7071 -154.735 358.0493)" class="st2" width="10.84" height="30"/>
</g>
<g>
	<g>
		
			<linearGradient id="SVGID_00000089560869271539947770000000111632738517414299_" gradientUnits="userSpaceOnUse" x1="784.3053" y1="686.6575" x2="817.2971" y2="653.6657" gradientTransform="matrix(-0.6919 -0.722 1.7479 -1.6749 -115.6386 2137.2617)">
			<stop  offset="0" style="stop-color:#FF0164"/>
			<stop  offset="1" style="stop-color:#203554"/>
			<stop  offset="1" style="stop-color:#504848"/>
			<stop  offset="1" style="stop-color:#494949"/>
		</linearGradient>
		<path style="fill:url(#SVGID_00000089560869271539947770000000111632738517414299_);" d="M522.32,381.43l-23.64,22.83
			l-105.76,102.1c-19.38,18.71-28.99,40.53-21.47,48.73l0,0c7.52,8.2,29.33-0.32,48.72-19.03l124.76-120.45
			c19.38-18.71,28.99-40.53,21.47-48.73l-13.62-14.85l-7.66-8.35C547.03,345.78,542.89,361.57,522.32,381.43z"/>
		
			<linearGradient id="SVGID_00000144300344836842582750000004128596638298763693_" gradientUnits="userSpaceOnUse" x1="760.1385" y1="674.7009" x2="810.8484" y2="623.991" gradientTransform="matrix(-0.6919 -0.722 1.6558 -1.5867 -60.7724 2084.6855)">
			<stop  offset="0" style="stop-color:#FF0164"/>
			<stop  offset="1" style="stop-color:#203554"/>
			<stop  offset="1" style="stop-color:#504848"/>
			<stop  offset="1" style="stop-color:#494949"/>
		</linearGradient>
		<path style="fill:url(#SVGID_00000144300344836842582750000004128596638298763693_);" d="M371.45,555.09L371.45,555.09
			c7.53,8.19,28.52,0.46,46.88-17.27L536.48,423.7c-65.57,63.33-113.8,53.9-145.44,84.45C372.69,525.88,363.91,546.9,371.45,555.09z
			"/>
	</g>
	<g>
		
			<linearGradient id="SVGID_00000124139815690367526200000009548691082709544875_" gradientUnits="userSpaceOnUse" x1="766.9195" y1="490.8513" x2="733.9277" y2="523.8431" gradientTransform="matrix(0.7071 -0.7071 -1.7014 -1.7014 642.6375 1851.5454)">
			<stop  offset="0" style="stop-color:#FF0164"/>
			<stop  offset="1" style="stop-color:#203554"/>
			<stop  offset="1" style="stop-color:#504848"/>
			<stop  offset="1" style="stop-color:#494949"/>
		</linearGradient>
		<path style="fill:url(#SVGID_00000124139815690367526200000009548691082709544875_);" d="M238.33,380.66l23.01,23.18l102.93,103.7
			c18.86,19.01,27.91,40.93,20.22,48.97l0,0c-7.7,8.04-29.23-0.85-48.09-19.85L214.98,414.33c-18.86-19.01-27.91-40.93-20.22-48.97
			l13.94-14.56l7.84-8.18C214.56,344.68,218.31,360.49,238.33,380.66z"/>
		
			<linearGradient id="SVGID_00000128458572342942748710000004378208657703590038_" gradientUnits="userSpaceOnUse" x1="759.0082" y1="462.5491" x2="708.2982" y2="513.2592" gradientTransform="matrix(0.7071 -0.7071 -1.6465 -1.6465 617.5941 1826.502)">
			<stop  offset="0" style="stop-color:#FF0164"/>
			<stop  offset="1" style="stop-color:#203554"/>
			<stop  offset="1" style="stop-color:#504848"/>
			<stop  offset="1" style="stop-color:#494949"/>
		</linearGradient>
		<path style="fill:url(#SVGID_00000128458572342942748710000004378208657703590038_);" d="M384.49,556.52L384.49,556.52
			c-7.7,8.03-28.74-0.36-47-18.76L220,419.36c65.19,65.7,113.93,57.61,145.38,89.31C383.64,527.06,392.19,548.49,384.49,556.52z"/>
	</g>
</g>
</svg>
